<mxfile host="app.diagrams.net" agent="Mozilla/5.0 (Windows NT 10.0; Win64; x64) AppleWebKit/537.36 (KHTML, like Gecko) Chrome/135.0.0.0 Safari/537.36" version="26.2.12">
  <diagram name="Page-1" id="bHiY7E8MZXqaX8_W893R">
    <mxGraphModel dx="1982" dy="1688" grid="1" gridSize="10" guides="1" tooltips="1" connect="1" arrows="1" fold="1" page="1" pageScale="1" pageWidth="850" pageHeight="1100" math="0" shadow="0">
      <root>
        <mxCell id="0" />
        <mxCell id="1" parent="0" />
        <mxCell id="ul5OAk2x1ltRjNjxx2wc-6" value="" style="endArrow=classic;html=1;rounded=0;entryX=0;entryY=0.5;entryDx=0;entryDy=0;" parent="1" target="ul5OAk2x1ltRjNjxx2wc-93" edge="1">
          <mxGeometry width="50" height="50" relative="1" as="geometry">
            <mxPoint x="400" y="180" as="sourcePoint" />
            <mxPoint x="480" y="180" as="targetPoint" />
            <Array as="points">
              <mxPoint x="480" y="180" />
              <mxPoint x="480" y="60" />
            </Array>
          </mxGeometry>
        </mxCell>
        <mxCell id="ul5OAk2x1ltRjNjxx2wc-7" value="" style="endArrow=classic;html=1;rounded=0;entryX=0;entryY=0.5;entryDx=0;entryDy=0;" parent="1" target="ul5OAk2x1ltRjNjxx2wc-95" edge="1">
          <mxGeometry width="50" height="50" relative="1" as="geometry">
            <mxPoint x="400" y="219.76" as="sourcePoint" />
            <mxPoint x="480" y="219.76" as="targetPoint" />
            <Array as="points">
              <mxPoint x="480" y="220" />
              <mxPoint x="560" y="220" />
              <mxPoint x="560" y="180" />
            </Array>
          </mxGeometry>
        </mxCell>
        <mxCell id="ul5OAk2x1ltRjNjxx2wc-8" value="" style="endArrow=classic;html=1;rounded=0;entryX=0;entryY=0.5;entryDx=0;entryDy=0;" parent="1" target="ul5OAk2x1ltRjNjxx2wc-99" edge="1">
          <mxGeometry width="50" height="50" relative="1" as="geometry">
            <mxPoint x="400" y="259.76" as="sourcePoint" />
            <mxPoint x="480" y="259.76" as="targetPoint" />
            <Array as="points">
              <mxPoint x="560" y="260" />
              <mxPoint x="560" y="300" />
            </Array>
          </mxGeometry>
        </mxCell>
        <mxCell id="ul5OAk2x1ltRjNjxx2wc-9" value="" style="endArrow=classic;html=1;rounded=0;entryX=0.075;entryY=0.538;entryDx=0;entryDy=0;entryPerimeter=0;" parent="1" target="ul5OAk2x1ltRjNjxx2wc-101" edge="1">
          <mxGeometry width="50" height="50" relative="1" as="geometry">
            <mxPoint x="400" y="299.76" as="sourcePoint" />
            <mxPoint x="480" y="299.76" as="targetPoint" />
            <Array as="points">
              <mxPoint x="480" y="300" />
              <mxPoint x="480" y="420" />
            </Array>
          </mxGeometry>
        </mxCell>
        <mxCell id="ul5OAk2x1ltRjNjxx2wc-10" value="" style="rounded=0;whiteSpace=wrap;html=1;" parent="1" vertex="1">
          <mxGeometry x="-660" y="160" width="40" height="40" as="geometry" />
        </mxCell>
        <mxCell id="ul5OAk2x1ltRjNjxx2wc-11" value="" style="rounded=0;whiteSpace=wrap;html=1;" parent="1" vertex="1">
          <mxGeometry x="-660" y="200" width="40" height="40" as="geometry" />
        </mxCell>
        <mxCell id="ul5OAk2x1ltRjNjxx2wc-12" value="" style="rounded=0;whiteSpace=wrap;html=1;fillColor=#fff2cc;strokeColor=#d6b656;" parent="1" vertex="1">
          <mxGeometry x="-660" y="240" width="40" height="40" as="geometry" />
        </mxCell>
        <mxCell id="ul5OAk2x1ltRjNjxx2wc-13" value="" style="rounded=0;whiteSpace=wrap;html=1;fillColor=#dae8fc;strokeColor=#6c8ebf;" parent="1" vertex="1">
          <mxGeometry x="-660" y="280" width="40" height="40" as="geometry" />
        </mxCell>
        <mxCell id="ul5OAk2x1ltRjNjxx2wc-14" value="" style="rounded=0;whiteSpace=wrap;html=1;fillColor=#dae8fc;strokeColor=#6c8ebf;" parent="1" vertex="1">
          <mxGeometry x="-660" y="320" width="40" height="40" as="geometry" />
        </mxCell>
        <mxCell id="ul5OAk2x1ltRjNjxx2wc-15" value="" style="rounded=0;whiteSpace=wrap;html=1;fillColor=#dae8fc;strokeColor=#6c8ebf;" parent="1" vertex="1">
          <mxGeometry x="-620" y="160" width="40" height="40" as="geometry" />
        </mxCell>
        <mxCell id="ul5OAk2x1ltRjNjxx2wc-16" value="" style="rounded=0;whiteSpace=wrap;html=1;fillColor=#dae8fc;strokeColor=#6c8ebf;" parent="1" vertex="1">
          <mxGeometry x="-620" y="200" width="40" height="40" as="geometry" />
        </mxCell>
        <mxCell id="ul5OAk2x1ltRjNjxx2wc-17" value="" style="rounded=0;whiteSpace=wrap;html=1;" parent="1" vertex="1">
          <mxGeometry x="-620" y="240" width="40" height="40" as="geometry" />
        </mxCell>
        <mxCell id="ul5OAk2x1ltRjNjxx2wc-18" value="" style="rounded=0;whiteSpace=wrap;html=1;fillColor=#dae8fc;strokeColor=#6c8ebf;" parent="1" vertex="1">
          <mxGeometry x="-620" y="280" width="40" height="40" as="geometry" />
        </mxCell>
        <mxCell id="ul5OAk2x1ltRjNjxx2wc-19" value="" style="rounded=0;whiteSpace=wrap;html=1;fillColor=#dae8fc;strokeColor=#6c8ebf;" parent="1" vertex="1">
          <mxGeometry x="-620" y="320" width="40" height="40" as="geometry" />
        </mxCell>
        <mxCell id="ul5OAk2x1ltRjNjxx2wc-20" value="" style="rounded=0;whiteSpace=wrap;html=1;fillColor=#fff2cc;strokeColor=#d6b656;" parent="1" vertex="1">
          <mxGeometry x="-580" y="160" width="40" height="40" as="geometry" />
        </mxCell>
        <mxCell id="ul5OAk2x1ltRjNjxx2wc-21" value="" style="rounded=0;whiteSpace=wrap;html=1;" parent="1" vertex="1">
          <mxGeometry x="-580" y="200" width="40" height="40" as="geometry" />
        </mxCell>
        <mxCell id="ul5OAk2x1ltRjNjxx2wc-22" value="" style="rounded=0;whiteSpace=wrap;html=1;fillColor=#fff2cc;strokeColor=#d6b656;" parent="1" vertex="1">
          <mxGeometry x="-580" y="240" width="40" height="40" as="geometry" />
        </mxCell>
        <mxCell id="ul5OAk2x1ltRjNjxx2wc-23" value="" style="rounded=0;whiteSpace=wrap;html=1;" parent="1" vertex="1">
          <mxGeometry x="-580" y="280" width="40" height="40" as="geometry" />
        </mxCell>
        <mxCell id="ul5OAk2x1ltRjNjxx2wc-24" value="" style="rounded=0;whiteSpace=wrap;html=1;fillColor=#fff2cc;strokeColor=#d6b656;" parent="1" vertex="1">
          <mxGeometry x="-580" y="320" width="40" height="40" as="geometry" />
        </mxCell>
        <mxCell id="ul5OAk2x1ltRjNjxx2wc-25" value="" style="rounded=0;whiteSpace=wrap;html=1;fillColor=#dae8fc;strokeColor=#6c8ebf;" parent="1" vertex="1">
          <mxGeometry x="-540" y="160" width="40" height="40" as="geometry" />
        </mxCell>
        <mxCell id="ul5OAk2x1ltRjNjxx2wc-26" value="" style="rounded=0;whiteSpace=wrap;html=1;fillColor=#dae8fc;strokeColor=#6c8ebf;" parent="1" vertex="1">
          <mxGeometry x="-540" y="200" width="40" height="40" as="geometry" />
        </mxCell>
        <mxCell id="ul5OAk2x1ltRjNjxx2wc-27" value="" style="rounded=0;whiteSpace=wrap;html=1;" parent="1" vertex="1">
          <mxGeometry x="-540" y="240" width="40" height="40" as="geometry" />
        </mxCell>
        <mxCell id="ul5OAk2x1ltRjNjxx2wc-28" value="" style="rounded=0;whiteSpace=wrap;html=1;fillColor=#dae8fc;strokeColor=#6c8ebf;" parent="1" vertex="1">
          <mxGeometry x="-540" y="280" width="40" height="40" as="geometry" />
        </mxCell>
        <mxCell id="ul5OAk2x1ltRjNjxx2wc-29" value="" style="rounded=0;whiteSpace=wrap;html=1;fillColor=#dae8fc;strokeColor=#6c8ebf;" parent="1" vertex="1">
          <mxGeometry x="-540" y="320" width="40" height="40" as="geometry" />
        </mxCell>
        <mxCell id="ul5OAk2x1ltRjNjxx2wc-30" value="" style="rounded=0;whiteSpace=wrap;html=1;fillColor=#dae8fc;strokeColor=#6c8ebf;" parent="1" vertex="1">
          <mxGeometry x="-500" y="160" width="40" height="40" as="geometry" />
        </mxCell>
        <mxCell id="ul5OAk2x1ltRjNjxx2wc-31" value="" style="rounded=0;whiteSpace=wrap;html=1;fillColor=#dae8fc;strokeColor=#6c8ebf;" parent="1" vertex="1">
          <mxGeometry x="-500" y="200" width="40" height="40" as="geometry" />
        </mxCell>
        <mxCell id="ul5OAk2x1ltRjNjxx2wc-32" value="" style="rounded=0;whiteSpace=wrap;html=1;fillColor=#fff2cc;strokeColor=#d6b656;" parent="1" vertex="1">
          <mxGeometry x="-500" y="240" width="40" height="40" as="geometry" />
        </mxCell>
        <mxCell id="ul5OAk2x1ltRjNjxx2wc-33" value="" style="rounded=0;whiteSpace=wrap;html=1;fillColor=#dae8fc;strokeColor=#6c8ebf;" parent="1" vertex="1">
          <mxGeometry x="-500" y="280" width="40" height="40" as="geometry" />
        </mxCell>
        <mxCell id="ul5OAk2x1ltRjNjxx2wc-34" value="" style="rounded=0;whiteSpace=wrap;html=1;fillColor=#dae8fc;strokeColor=#6c8ebf;" parent="1" vertex="1">
          <mxGeometry x="-500" y="320" width="40" height="40" as="geometry" />
        </mxCell>
        <mxCell id="ul5OAk2x1ltRjNjxx2wc-35" value="" style="endArrow=classic;html=1;rounded=0;exitX=1;exitY=0.5;exitDx=0;exitDy=0;entryX=-0.007;entryY=0.356;entryDx=0;entryDy=0;entryPerimeter=0;" parent="1" source="ul5OAk2x1ltRjNjxx2wc-32" target="ul5OAk2x1ltRjNjxx2wc-36" edge="1">
          <mxGeometry width="50" height="50" relative="1" as="geometry">
            <mxPoint x="-380" y="280" as="sourcePoint" />
            <mxPoint x="-360" y="140" as="targetPoint" />
            <Array as="points">
              <mxPoint x="-400" y="260" />
              <mxPoint x="-400" y="140" />
            </Array>
          </mxGeometry>
        </mxCell>
        <mxCell id="ul5OAk2x1ltRjNjxx2wc-36" value="" style="rounded=0;whiteSpace=wrap;html=1;dashed=1;dashPattern=8 8;" parent="1" vertex="1">
          <mxGeometry x="-190" y="-20" width="210" height="450" as="geometry" />
        </mxCell>
        <mxCell id="ul5OAk2x1ltRjNjxx2wc-39" value="interpolation_R_2" style="rounded=0;whiteSpace=wrap;html=1;" parent="1" vertex="1">
          <mxGeometry x="-360" y="460" width="120" height="60" as="geometry" />
        </mxCell>
        <mxCell id="ul5OAk2x1ltRjNjxx2wc-41" value="" style="endArrow=classic;html=1;rounded=0;exitX=1;exitY=0.5;exitDx=0;exitDy=0;entryX=0;entryY=0.5;entryDx=0;entryDy=0;" parent="1" source="ul5OAk2x1ltRjNjxx2wc-32" target="ul5OAk2x1ltRjNjxx2wc-39" edge="1">
          <mxGeometry width="50" height="50" relative="1" as="geometry">
            <mxPoint x="-380" y="310" as="sourcePoint" />
            <mxPoint x="-330" y="260" as="targetPoint" />
            <Array as="points">
              <mxPoint x="-400" y="260" />
              <mxPoint x="-400" y="360" />
              <mxPoint x="-400" y="490" />
            </Array>
          </mxGeometry>
        </mxCell>
        <mxCell id="ul5OAk2x1ltRjNjxx2wc-44" value="R_2 = R_1 - 1" style="text;html=1;align=center;verticalAlign=middle;whiteSpace=wrap;rounded=0;" parent="1" vertex="1">
          <mxGeometry x="-470" y="-10" width="120" height="30" as="geometry" />
        </mxCell>
        <mxCell id="ul5OAk2x1ltRjNjxx2wc-46" value="interpolation_calc" style="rounded=0;whiteSpace=wrap;html=1;" parent="1" vertex="1">
          <mxGeometry x="-160" width="160" height="40" as="geometry" />
        </mxCell>
        <mxCell id="ul5OAk2x1ltRjNjxx2wc-47" value="" style="rounded=0;whiteSpace=wrap;html=1;fillColor=#dae8fc;strokeColor=#6c8ebf;" parent="1" vertex="1">
          <mxGeometry x="-660" y="160" width="40" height="40" as="geometry" />
        </mxCell>
        <mxCell id="ul5OAk2x1ltRjNjxx2wc-48" value="" style="rounded=0;whiteSpace=wrap;html=1;fillColor=#dae8fc;strokeColor=#6c8ebf;" parent="1" vertex="1">
          <mxGeometry x="-660" y="200" width="40" height="40" as="geometry" />
        </mxCell>
        <mxCell id="ul5OAk2x1ltRjNjxx2wc-49" value="interpolation_calc" style="rounded=0;whiteSpace=wrap;html=1;" parent="1" vertex="1">
          <mxGeometry x="-160" y="80" width="160" height="40" as="geometry" />
        </mxCell>
        <mxCell id="ul5OAk2x1ltRjNjxx2wc-50" value="interpolation_calc" style="rounded=0;whiteSpace=wrap;html=1;" parent="1" vertex="1">
          <mxGeometry x="-160" y="160" width="160" height="40" as="geometry" />
        </mxCell>
        <mxCell id="ul5OAk2x1ltRjNjxx2wc-51" value="interpolation_calc" style="rounded=0;whiteSpace=wrap;html=1;" parent="1" vertex="1">
          <mxGeometry x="-160" y="240" width="160" height="40" as="geometry" />
        </mxCell>
        <mxCell id="ul5OAk2x1ltRjNjxx2wc-61" value="" style="group" parent="1" vertex="1" connectable="0">
          <mxGeometry x="-160" y="340" width="40" height="40" as="geometry" />
        </mxCell>
        <mxCell id="ul5OAk2x1ltRjNjxx2wc-45" value="" style="rounded=0;whiteSpace=wrap;html=1;" parent="ul5OAk2x1ltRjNjxx2wc-61" vertex="1">
          <mxGeometry width="40" height="40" as="geometry" />
        </mxCell>
        <mxCell id="ul5OAk2x1ltRjNjxx2wc-60" value="" style="triangle;whiteSpace=wrap;html=1;direction=north;" parent="ul5OAk2x1ltRjNjxx2wc-61" vertex="1">
          <mxGeometry x="10" y="30" width="20" height="10" as="geometry" />
        </mxCell>
        <mxCell id="ul5OAk2x1ltRjNjxx2wc-65" value="" style="group" parent="1" vertex="1" connectable="0">
          <mxGeometry x="-40" y="340" width="40" height="40" as="geometry" />
        </mxCell>
        <mxCell id="ul5OAk2x1ltRjNjxx2wc-66" value="" style="rounded=0;whiteSpace=wrap;html=1;" parent="ul5OAk2x1ltRjNjxx2wc-65" vertex="1">
          <mxGeometry width="40" height="40" as="geometry" />
        </mxCell>
        <mxCell id="ul5OAk2x1ltRjNjxx2wc-67" value="" style="triangle;whiteSpace=wrap;html=1;direction=north;" parent="ul5OAk2x1ltRjNjxx2wc-65" vertex="1">
          <mxGeometry x="10" y="30" width="20" height="10" as="geometry" />
        </mxCell>
        <mxCell id="ul5OAk2x1ltRjNjxx2wc-68" value="" style="endArrow=none;dashed=1;html=1;dashPattern=1 3;strokeWidth=2;rounded=0;" parent="ul5OAk2x1ltRjNjxx2wc-65" edge="1">
          <mxGeometry width="50" height="50" relative="1" as="geometry">
            <mxPoint x="-60" y="20" as="sourcePoint" />
            <mxPoint x="-20" y="20" as="targetPoint" />
          </mxGeometry>
        </mxCell>
        <mxCell id="ul5OAk2x1ltRjNjxx2wc-70" value="" style="endArrow=classic;html=1;rounded=0;exitX=1;exitY=0.5;exitDx=0;exitDy=0;" parent="1" source="ul5OAk2x1ltRjNjxx2wc-46" edge="1">
          <mxGeometry width="50" height="50" relative="1" as="geometry">
            <mxPoint x="200" y="150" as="sourcePoint" />
            <mxPoint x="80" y="20" as="targetPoint" />
          </mxGeometry>
        </mxCell>
        <mxCell id="ul5OAk2x1ltRjNjxx2wc-71" value="" style="endArrow=classic;html=1;rounded=0;exitX=1;exitY=0.5;exitDx=0;exitDy=0;" parent="1" edge="1">
          <mxGeometry width="50" height="50" relative="1" as="geometry">
            <mxPoint y="99.8" as="sourcePoint" />
            <mxPoint x="80" y="99.8" as="targetPoint" />
          </mxGeometry>
        </mxCell>
        <mxCell id="ul5OAk2x1ltRjNjxx2wc-72" value="" style="endArrow=classic;html=1;rounded=0;exitX=1;exitY=0.5;exitDx=0;exitDy=0;" parent="1" edge="1">
          <mxGeometry width="50" height="50" relative="1" as="geometry">
            <mxPoint y="179.8" as="sourcePoint" />
            <mxPoint x="80" y="179.8" as="targetPoint" />
          </mxGeometry>
        </mxCell>
        <mxCell id="ul5OAk2x1ltRjNjxx2wc-73" value="" style="endArrow=classic;html=1;rounded=0;exitX=1;exitY=0.5;exitDx=0;exitDy=0;" parent="1" edge="1">
          <mxGeometry width="50" height="50" relative="1" as="geometry">
            <mxPoint y="259.8" as="sourcePoint" />
            <mxPoint x="80" y="259.8" as="targetPoint" />
          </mxGeometry>
        </mxCell>
        <mxCell id="ul5OAk2x1ltRjNjxx2wc-74" value="value_45&lt;span style=&quot;color: rgba(0, 0, 0, 0); font-family: monospace; font-size: 0px; text-align: start; text-wrap-mode: nowrap;&quot;&gt;%3CmxGraphModel%3E%3Croot%3E%3CmxCell%20id%3D%220%22%2F%3E%3CmxCell%20id%3D%221%22%20parent%3D%220%22%2F%3E%3CmxCell%20id%3D%222%22%20value%3D%22%22%20style%3D%22endArrow%3Dclassic%3Bhtml%3D1%3Brounded%3D0%3BexitX%3D1%3BexitY%3D0.5%3BexitDx%3D0%3BexitDy%3D0%3B%22%20edge%3D%221%22%20parent%3D%221%22%3E%3CmxGeometry%20width%3D%2250%22%20height%3D%2250%22%20relative%3D%221%22%20as%3D%22geometry%22%3E%3CmxPoint%20y%3D%22179.8%22%20as%3D%22sourcePoint%22%2F%3E%3CmxPoint%20x%3D%2280%22%20y%3D%22179.8%22%20as%3D%22targetPoint%22%2F%3E%3C%2FmxGeometry%3E%3C%2FmxCell%3E%3C%2Froot%3E%3C%2FmxGraphModel%3E&lt;/span&gt;" style="text;html=1;align=center;verticalAlign=middle;whiteSpace=wrap;rounded=0;" parent="1" vertex="1">
          <mxGeometry x="20" y="-20" width="60" height="30" as="geometry" />
        </mxCell>
        <mxCell id="ul5OAk2x1ltRjNjxx2wc-75" value="value_135&lt;span style=&quot;color: rgba(0, 0, 0, 0); font-family: monospace; font-size: 0px; text-align: start; text-wrap-mode: nowrap;&quot;&gt;%3CmxGraphModel%3E%3Croot%3E%3CmxCell%20id%3D%220%22%2F%3E%3CmxCell%20id%3D%221%22%20parent%3D%220%22%2F%3E%3CmxCell%20id%3D%222%22%20value%3D%22%22%20style%3D%22endArrow%3Dclassic%3Bhtml%3D1%3Brounded%3D0%3BexitX%3D1%3BexitY%3D0.5%3BexitDx%3D0%3BexitDy%3D0%3B%22%20edge%3D%221%22%20parent%3D%221%22%3E%3CmxGeometry%20width%3D%2250%22%20height%3D%2250%22%20relative%3D%221%22%20as%3D%22geometry%22%3E%3CmxPoint%20y%3D%22179.8%22%20as%3D%22sourcePoint%22%2F%3E%3CmxPoint%20x%3D%2280%22%20y%3D%22179.8%22%20as%3D%22targetPoint%22%2F%3E%3C%2FmxGeometry%3E%3C%2FmxCell%3E%3C%2Froot%3E%3C%2FmxGraphModel%3E&lt;/span&gt;" style="text;html=1;align=center;verticalAlign=middle;whiteSpace=wrap;rounded=0;" parent="1" vertex="1">
          <mxGeometry x="20" y="70" width="60" height="30" as="geometry" />
        </mxCell>
        <mxCell id="ul5OAk2x1ltRjNjxx2wc-77" value="value_22&lt;span style=&quot;color: rgba(0, 0, 0, 0); font-family: monospace; font-size: 0px; text-align: start; text-wrap-mode: nowrap;&quot;&gt;%3CmxGraphModel%3E%3Croot%3E%3CmxCell%20id%3D%220%22%2F%3E%3CmxCell%20id%3D%221%22%20parent%3D%220%22%2F%3E%3CmxCell%20id%3D%222%22%20value%3D%22value_135%26lt%3Bspan%20style%3D%26quot%3Bcolor%3A%20rgba(0%2C%200%2C%200%2C%200)%3B%20font-family%3A%20monospace%3B%20font-size%3A%200px%3B%20text-align%3A%20start%3B%20text-wrap-mode%3A%20nowrap%3B%26quot%3B%26gt%3B%253CmxGraphModel%253E%253Croot%253E%253CmxCell%2520id%253D%25220%2522%252F%253E%253CmxCell%2520id%253D%25221%2522%2520parent%253D%25220%2522%252F%253E%253CmxCell%2520id%253D%25222%2522%2520value%253D%2522%2522%2520style%253D%2522endArrow%253Dclassic%253Bhtml%253D1%253Brounded%253D0%253BexitX%253D1%253BexitY%253D0.5%253BexitDx%253D0%253BexitDy%253D0%253B%2522%2520edge%253D%25221%2522%2520parent%253D%25221%2522%253E%253CmxGeometry%2520width%253D%252250%2522%2520height%253D%252250%2522%2520relative%253D%25221%2522%2520as%253D%2522geometry%2522%253E%253CmxPoint%2520y%253D%2522179.8%2522%2520as%253D%2522sourcePoint%2522%252F%253E%253CmxPoint%2520x%253D%252280%2522%2520y%253D%2522179.8%2522%2520as%253D%2522targetPoint%2522%252F%253E%253C%252FmxGeometry%253E%253C%252FmxCell%253E%253C%252Froot%253E%253C%252FmxGraphModel%253E%26lt%3B%2Fspan%26gt%3B%22%20style%3D%22text%3Bhtml%3D1%3Balign%3Dcenter%3BverticalAlign%3Dmiddle%3BwhiteSpace%3Dwrap%3Brounded%3D0%3B%22%20vertex%3D%221%22%20parent%3D%221%22%3E%3CmxGeometry%20x%3D%2220%22%20y%3D%2270%22%20width%3D%2260%22%20height%3D%2230%22%20as%3D%22geometry%22%2F%3E%3C%2FmxCell%3E%3C%2Froot%3E%3C%2FmxGraphModel%3E&lt;/span&gt;5&lt;span style=&quot;color: rgba(0, 0, 0, 0); font-family: monospace; font-size: 0px; text-align: start; text-wrap-mode: nowrap;&quot;&gt;%3CmxGraphModel%3E%3Croot%3E%3CmxCell%20id%3D%220%22%2F%3E%3CmxCell%20id%3D%221%22%20parent%3D%220%22%2F%3E%3CmxCell%20id%3D%222%22%20value%3D%22%22%20style%3D%22endArrow%3Dclassic%3Bhtml%3D1%3Brounded%3D0%3BexitX%3D1%3BexitY%3D0.5%3BexitDx%3D0%3BexitDy%3D0%3B%22%20edge%3D%221%22%20parent%3D%221%22%3E%3CmxGeometry%20width%3D%2250%22%20height%3D%2250%22%20relative%3D%221%22%20as%3D%22geometry%22%3E%3CmxPoint%20y%3D%22179.8%22%20as%3D%22sourcePoint%22%2F%3E%3CmxPoint%20x%3D%2280%22%20y%3D%22179.8%22%20as%3D%22targetPoint%22%2F%3E%3C%2FmxGeometry%3E%3C%2FmxCell%3E%3C%2Froot%3E%3C%2FmxGraphMod&lt;/span&gt;" style="text;html=1;align=center;verticalAlign=middle;whiteSpace=wrap;rounded=0;" parent="1" vertex="1">
          <mxGeometry x="20" y="150" width="60" height="30" as="geometry" />
        </mxCell>
        <mxCell id="ul5OAk2x1ltRjNjxx2wc-78" value="value_315&lt;span style=&quot;color: rgba(0, 0, 0, 0); font-family: monospace; font-size: 0px; text-align: start; text-wrap-mode: nowrap;&quot;&gt;%3CmxGraphModel%3E%3Croot%3E%3CmxCell%20id%3D%220%22%2F%3E%3CmxCell%20id%3D%221%22%20parent%3D%220%22%2F%3E%3CmxCell%20id%3D%222%22%20value%3D%22%22%20style%3D%22endArrow%3Dclassic%3Bhtml%3D1%3Brounded%3D0%3BexitX%3D1%3BexitY%3D0.5%3BexitDx%3D0%3BexitDy%3D0%3B%22%20edge%3D%221%22%20parent%3D%221%22%3E%3CmxGeometry%20width%3D%2250%22%20height%3D%2250%22%20relative%3D%221%22%20as%3D%22geometry%22%3E%3CmxPoint%20y%3D%22179.8%22%20as%3D%22sourcePoint%22%2F%3E%3CmxPoint%20x%3D%2280%22%20y%3D%22179.8%22%20as%3D%22targetPoint%22%2F%3E%3C%2FmxGeometry%3E%3C%2FmxCell%3E%3C%2Froot%3E%3C%2FmxGraphModel%3E&lt;/span&gt;" style="text;html=1;align=center;verticalAlign=middle;whiteSpace=wrap;rounded=0;" parent="1" vertex="1">
          <mxGeometry x="20" y="230" width="60" height="30" as="geometry" />
        </mxCell>
        <mxCell id="ul5OAk2x1ltRjNjxx2wc-79" value="" style="endArrow=classic;html=1;rounded=0;exitX=1;exitY=0.5;exitDx=0;exitDy=0;" parent="1" source="ul5OAk2x1ltRjNjxx2wc-66" edge="1">
          <mxGeometry width="50" height="50" relative="1" as="geometry">
            <mxPoint x="80" y="400" as="sourcePoint" />
            <mxPoint x="80" y="360" as="targetPoint" />
          </mxGeometry>
        </mxCell>
        <mxCell id="ul5OAk2x1ltRjNjxx2wc-81" value="S_0, S_90, S_180, S_360, S_center" style="text;html=1;align=center;verticalAlign=middle;whiteSpace=wrap;rounded=0;" parent="1" vertex="1">
          <mxGeometry x="10" y="310" width="130" height="30" as="geometry" />
        </mxCell>
        <mxCell id="ul5OAk2x1ltRjNjxx2wc-93" value="*" style="rounded=0;whiteSpace=wrap;html=1;" parent="1" vertex="1">
          <mxGeometry x="600" y="40" width="40" height="40" as="geometry" />
        </mxCell>
        <mxCell id="ul5OAk2x1ltRjNjxx2wc-94" value="" style="triangle;whiteSpace=wrap;html=1;direction=north;" parent="1" vertex="1">
          <mxGeometry x="610" y="70" width="20" height="10" as="geometry" />
        </mxCell>
        <mxCell id="ul5OAk2x1ltRjNjxx2wc-95" value="*" style="rounded=0;whiteSpace=wrap;html=1;" parent="1" vertex="1">
          <mxGeometry x="600" y="160" width="40" height="40" as="geometry" />
        </mxCell>
        <mxCell id="ul5OAk2x1ltRjNjxx2wc-96" value="" style="triangle;whiteSpace=wrap;html=1;direction=north;" parent="1" vertex="1">
          <mxGeometry x="610" y="190" width="20" height="10" as="geometry" />
        </mxCell>
        <mxCell id="ul5OAk2x1ltRjNjxx2wc-98" value="&lt;span style=&quot;color: rgb(0, 0, 0); font-family: Helvetica; font-size: 12px; font-style: normal; font-variant-ligatures: normal; font-variant-caps: normal; font-weight: 400; letter-spacing: normal; orphans: 2; text-align: center; text-indent: 0px; text-transform: none; widows: 2; word-spacing: 0px; -webkit-text-stroke-width: 0px; white-space: normal; background-color: rgb(251, 251, 251); text-decoration-thickness: initial; text-decoration-style: initial; text-decoration-color: initial; display: inline !important; float: none;&quot;&gt;interpolation_R_1&lt;/span&gt;" style="text;whiteSpace=wrap;html=1;" parent="1" vertex="1">
          <mxGeometry x="-120" y="-50" width="100" height="30" as="geometry" />
        </mxCell>
        <mxCell id="ul5OAk2x1ltRjNjxx2wc-99" value="*" style="rounded=0;whiteSpace=wrap;html=1;" parent="1" vertex="1">
          <mxGeometry x="600" y="280" width="40" height="40" as="geometry" />
        </mxCell>
        <mxCell id="ul5OAk2x1ltRjNjxx2wc-100" value="" style="triangle;whiteSpace=wrap;html=1;direction=north;" parent="1" vertex="1">
          <mxGeometry x="610" y="310" width="20" height="10" as="geometry" />
        </mxCell>
        <mxCell id="ul5OAk2x1ltRjNjxx2wc-101" value="*" style="rounded=0;whiteSpace=wrap;html=1;" parent="1" vertex="1">
          <mxGeometry x="600" y="400" width="40" height="40" as="geometry" />
        </mxCell>
        <mxCell id="ul5OAk2x1ltRjNjxx2wc-102" value="" style="triangle;whiteSpace=wrap;html=1;direction=north;" parent="1" vertex="1">
          <mxGeometry x="610" y="430" width="20" height="10" as="geometry" />
        </mxCell>
        <mxCell id="4MSmI4F7gKk0C6rkAVeh-1" value="Lookup Table" style="rounded=0;whiteSpace=wrap;html=1;" vertex="1" parent="1">
          <mxGeometry x="415" y="680" width="130" height="80" as="geometry" />
        </mxCell>
        <mxCell id="4MSmI4F7gKk0C6rkAVeh-2" value="" style="endArrow=classic;html=1;rounded=0;entryX=0.302;entryY=0.003;entryDx=0;entryDy=0;entryPerimeter=0;exitX=0.5;exitY=1;exitDx=0;exitDy=0;" edge="1" parent="1" target="4MSmI4F7gKk0C6rkAVeh-1">
          <mxGeometry width="50" height="50" relative="1" as="geometry">
            <mxPoint x="455" y="650" as="sourcePoint" />
            <mxPoint x="525" y="620" as="targetPoint" />
          </mxGeometry>
        </mxCell>
        <mxCell id="4MSmI4F7gKk0C6rkAVeh-3" value="R" style="text;html=1;align=center;verticalAlign=middle;whiteSpace=wrap;rounded=0;" vertex="1" parent="1">
          <mxGeometry x="420" y="630" width="60" height="30" as="geometry" />
        </mxCell>
        <mxCell id="4MSmI4F7gKk0C6rkAVeh-4" value="" style="endArrow=classic;html=1;rounded=0;entryX=0.329;entryY=-0.01;entryDx=0;entryDy=0;entryPerimeter=0;" edge="1" parent="1">
          <mxGeometry width="50" height="50" relative="1" as="geometry">
            <mxPoint x="495" y="650" as="sourcePoint" />
            <mxPoint x="495" y="680" as="targetPoint" />
          </mxGeometry>
        </mxCell>
        <mxCell id="4MSmI4F7gKk0C6rkAVeh-5" value="ANGLE" style="text;html=1;align=center;verticalAlign=middle;whiteSpace=wrap;rounded=0;" vertex="1" parent="1">
          <mxGeometry x="460" y="630" width="60" height="30" as="geometry" />
        </mxCell>
        <mxCell id="4MSmI4F7gKk0C6rkAVeh-6" value="" style="endArrow=classic;html=1;rounded=0;exitX=0;exitY=1;exitDx=0;exitDy=0;" edge="1" parent="1" source="4MSmI4F7gKk0C6rkAVeh-1">
          <mxGeometry width="50" height="50" relative="1" as="geometry">
            <mxPoint x="415" y="761" as="sourcePoint" />
            <mxPoint x="415" y="780" as="targetPoint" />
          </mxGeometry>
        </mxCell>
        <mxCell id="4MSmI4F7gKk0C6rkAVeh-8" value="r1[23:0]" style="text;html=1;align=center;verticalAlign=middle;whiteSpace=wrap;rounded=0;" vertex="1" parent="1">
          <mxGeometry x="380" y="780" width="60" height="30" as="geometry" />
        </mxCell>
        <mxCell id="4MSmI4F7gKk0C6rkAVeh-9" value="" style="endArrow=classic;html=1;rounded=0;exitX=0.25;exitY=1;exitDx=0;exitDy=0;" edge="1" parent="1">
          <mxGeometry width="50" height="50" relative="1" as="geometry">
            <mxPoint x="455" y="760" as="sourcePoint" />
            <mxPoint x="455" y="780" as="targetPoint" />
          </mxGeometry>
        </mxCell>
        <mxCell id="4MSmI4F7gKk0C6rkAVeh-10" value="r2[23:0]" style="text;html=1;align=center;verticalAlign=middle;whiteSpace=wrap;rounded=0;" vertex="1" parent="1">
          <mxGeometry x="425" y="780" width="60" height="30" as="geometry" />
        </mxCell>
        <mxCell id="4MSmI4F7gKk0C6rkAVeh-11" value="" style="endArrow=classic;html=1;rounded=0;exitX=0.25;exitY=1;exitDx=0;exitDy=0;" edge="1" parent="1">
          <mxGeometry width="50" height="50" relative="1" as="geometry">
            <mxPoint x="495" y="760" as="sourcePoint" />
            <mxPoint x="495" y="780" as="targetPoint" />
          </mxGeometry>
        </mxCell>
        <mxCell id="4MSmI4F7gKk0C6rkAVeh-13" value="r3[23:0]" style="text;html=1;align=center;verticalAlign=middle;whiteSpace=wrap;rounded=0;" vertex="1" parent="1">
          <mxGeometry x="475" y="780" width="60" height="30" as="geometry" />
        </mxCell>
        <mxCell id="4MSmI4F7gKk0C6rkAVeh-14" value="" style="endArrow=classic;html=1;rounded=0;exitX=0.25;exitY=1;exitDx=0;exitDy=0;" edge="1" parent="1">
          <mxGeometry width="50" height="50" relative="1" as="geometry">
            <mxPoint x="535" y="760" as="sourcePoint" />
            <mxPoint x="535" y="780" as="targetPoint" />
          </mxGeometry>
        </mxCell>
        <mxCell id="4MSmI4F7gKk0C6rkAVeh-16" value="r4[23:0]" style="text;html=1;align=center;verticalAlign=middle;whiteSpace=wrap;rounded=0;" vertex="1" parent="1">
          <mxGeometry x="525" y="780" width="60" height="30" as="geometry" />
        </mxCell>
        <mxCell id="4MSmI4F7gKk0C6rkAVeh-17" value="" style="group;fontSize=14;" vertex="1" connectable="0" parent="1">
          <mxGeometry x="-60" y="710" width="50" height="80" as="geometry" />
        </mxCell>
        <mxCell id="4MSmI4F7gKk0C6rkAVeh-18" value="" style="rounded=0;whiteSpace=wrap;html=1;fontSize=14;" vertex="1" parent="4MSmI4F7gKk0C6rkAVeh-17">
          <mxGeometry width="50" height="80" as="geometry" />
        </mxCell>
        <mxCell id="4MSmI4F7gKk0C6rkAVeh-19" value="" style="triangle;whiteSpace=wrap;html=1;direction=north;fontSize=14;" vertex="1" parent="4MSmI4F7gKk0C6rkAVeh-17">
          <mxGeometry x="16.666666666666668" y="66.66666666666666" width="16.666666666666668" height="13.333333333333332" as="geometry" />
        </mxCell>
        <mxCell id="4MSmI4F7gKk0C6rkAVeh-20" value="D" style="text;html=1;align=center;verticalAlign=middle;whiteSpace=wrap;rounded=0;fontSize=14;" vertex="1" parent="4MSmI4F7gKk0C6rkAVeh-17">
          <mxGeometry y="6.666666666666666" width="16.666666666666668" height="20" as="geometry" />
        </mxCell>
        <mxCell id="4MSmI4F7gKk0C6rkAVeh-21" value="Q" style="text;html=1;align=center;verticalAlign=middle;whiteSpace=wrap;rounded=0;fontSize=14;" vertex="1" parent="4MSmI4F7gKk0C6rkAVeh-17">
          <mxGeometry x="33.333333333333336" y="6.666666666666666" width="16.666666666666668" height="20" as="geometry" />
        </mxCell>
        <mxCell id="4MSmI4F7gKk0C6rkAVeh-22" value="" style="endArrow=classic;html=1;rounded=0;entryX=-0.068;entryY=0.659;entryDx=0;entryDy=0;entryPerimeter=0;" edge="1" parent="1" target="4MSmI4F7gKk0C6rkAVeh-20">
          <mxGeometry width="50" height="50" relative="1" as="geometry">
            <mxPoint x="-100" y="730" as="sourcePoint" />
            <mxPoint x="90" y="690" as="targetPoint" />
          </mxGeometry>
        </mxCell>
        <mxCell id="4MSmI4F7gKk0C6rkAVeh-23" value="" style="group;fontSize=14;" vertex="1" connectable="0" parent="1">
          <mxGeometry x="-60" y="800" width="50" height="80" as="geometry" />
        </mxCell>
        <mxCell id="4MSmI4F7gKk0C6rkAVeh-24" value="" style="rounded=0;whiteSpace=wrap;html=1;fontSize=14;" vertex="1" parent="4MSmI4F7gKk0C6rkAVeh-23">
          <mxGeometry width="50" height="80" as="geometry" />
        </mxCell>
        <mxCell id="4MSmI4F7gKk0C6rkAVeh-25" value="" style="triangle;whiteSpace=wrap;html=1;direction=north;fontSize=14;" vertex="1" parent="4MSmI4F7gKk0C6rkAVeh-23">
          <mxGeometry x="16.666666666666668" y="66.66666666666666" width="16.666666666666668" height="13.333333333333332" as="geometry" />
        </mxCell>
        <mxCell id="4MSmI4F7gKk0C6rkAVeh-26" value="D" style="text;html=1;align=center;verticalAlign=middle;whiteSpace=wrap;rounded=0;fontSize=14;" vertex="1" parent="4MSmI4F7gKk0C6rkAVeh-23">
          <mxGeometry y="6.666666666666666" width="16.666666666666668" height="20" as="geometry" />
        </mxCell>
        <mxCell id="4MSmI4F7gKk0C6rkAVeh-27" value="Q" style="text;html=1;align=center;verticalAlign=middle;whiteSpace=wrap;rounded=0;fontSize=14;" vertex="1" parent="4MSmI4F7gKk0C6rkAVeh-23">
          <mxGeometry x="33.333333333333336" y="6.666666666666666" width="16.666666666666668" height="20" as="geometry" />
        </mxCell>
        <mxCell id="4MSmI4F7gKk0C6rkAVeh-28" value="" style="endArrow=classic;html=1;rounded=0;entryX=-0.068;entryY=0.659;entryDx=0;entryDy=0;entryPerimeter=0;" edge="1" parent="1" target="4MSmI4F7gKk0C6rkAVeh-26">
          <mxGeometry width="50" height="50" relative="1" as="geometry">
            <mxPoint x="-100" y="820" as="sourcePoint" />
            <mxPoint x="90" y="780" as="targetPoint" />
          </mxGeometry>
        </mxCell>
        <mxCell id="4MSmI4F7gKk0C6rkAVeh-29" value="" style="group;fontSize=14;" vertex="1" connectable="0" parent="1">
          <mxGeometry x="-60" y="890" width="50" height="80" as="geometry" />
        </mxCell>
        <mxCell id="4MSmI4F7gKk0C6rkAVeh-30" value="" style="rounded=0;whiteSpace=wrap;html=1;fontSize=14;" vertex="1" parent="4MSmI4F7gKk0C6rkAVeh-29">
          <mxGeometry width="50" height="80" as="geometry" />
        </mxCell>
        <mxCell id="4MSmI4F7gKk0C6rkAVeh-31" value="" style="triangle;whiteSpace=wrap;html=1;direction=north;fontSize=14;" vertex="1" parent="4MSmI4F7gKk0C6rkAVeh-29">
          <mxGeometry x="16.666666666666668" y="66.66666666666666" width="16.666666666666668" height="13.333333333333332" as="geometry" />
        </mxCell>
        <mxCell id="4MSmI4F7gKk0C6rkAVeh-32" value="D" style="text;html=1;align=center;verticalAlign=middle;whiteSpace=wrap;rounded=0;fontSize=14;" vertex="1" parent="4MSmI4F7gKk0C6rkAVeh-29">
          <mxGeometry y="6.666666666666666" width="16.666666666666668" height="20" as="geometry" />
        </mxCell>
        <mxCell id="4MSmI4F7gKk0C6rkAVeh-33" value="Q" style="text;html=1;align=center;verticalAlign=middle;whiteSpace=wrap;rounded=0;fontSize=14;" vertex="1" parent="4MSmI4F7gKk0C6rkAVeh-29">
          <mxGeometry x="33.333333333333336" y="6.666666666666666" width="16.666666666666668" height="20" as="geometry" />
        </mxCell>
        <mxCell id="4MSmI4F7gKk0C6rkAVeh-34" value="" style="endArrow=classic;html=1;rounded=0;entryX=-0.068;entryY=0.659;entryDx=0;entryDy=0;entryPerimeter=0;" edge="1" parent="1" target="4MSmI4F7gKk0C6rkAVeh-32">
          <mxGeometry width="50" height="50" relative="1" as="geometry">
            <mxPoint x="-100" y="910" as="sourcePoint" />
            <mxPoint x="90" y="870" as="targetPoint" />
          </mxGeometry>
        </mxCell>
        <mxCell id="4MSmI4F7gKk0C6rkAVeh-35" value="" style="group;fontSize=14;" vertex="1" connectable="0" parent="1">
          <mxGeometry x="-60" y="980" width="50" height="80" as="geometry" />
        </mxCell>
        <mxCell id="4MSmI4F7gKk0C6rkAVeh-36" value="" style="rounded=0;whiteSpace=wrap;html=1;fontSize=14;" vertex="1" parent="4MSmI4F7gKk0C6rkAVeh-35">
          <mxGeometry width="50" height="80" as="geometry" />
        </mxCell>
        <mxCell id="4MSmI4F7gKk0C6rkAVeh-37" value="" style="triangle;whiteSpace=wrap;html=1;direction=north;fontSize=14;" vertex="1" parent="4MSmI4F7gKk0C6rkAVeh-35">
          <mxGeometry x="16.666666666666668" y="66.66666666666666" width="16.666666666666668" height="13.333333333333332" as="geometry" />
        </mxCell>
        <mxCell id="4MSmI4F7gKk0C6rkAVeh-38" value="D" style="text;html=1;align=center;verticalAlign=middle;whiteSpace=wrap;rounded=0;fontSize=14;" vertex="1" parent="4MSmI4F7gKk0C6rkAVeh-35">
          <mxGeometry y="6.666666666666666" width="16.666666666666668" height="20" as="geometry" />
        </mxCell>
        <mxCell id="4MSmI4F7gKk0C6rkAVeh-39" value="Q" style="text;html=1;align=center;verticalAlign=middle;whiteSpace=wrap;rounded=0;fontSize=14;" vertex="1" parent="4MSmI4F7gKk0C6rkAVeh-35">
          <mxGeometry x="33.333333333333336" y="6.666666666666666" width="16.666666666666668" height="20" as="geometry" />
        </mxCell>
        <mxCell id="4MSmI4F7gKk0C6rkAVeh-40" value="" style="endArrow=classic;html=1;rounded=0;entryX=-0.068;entryY=0.659;entryDx=0;entryDy=0;entryPerimeter=0;" edge="1" parent="1" target="4MSmI4F7gKk0C6rkAVeh-38">
          <mxGeometry width="50" height="50" relative="1" as="geometry">
            <mxPoint x="-100" y="1000" as="sourcePoint" />
            <mxPoint x="90" y="960" as="targetPoint" />
          </mxGeometry>
        </mxCell>
        <mxCell id="4MSmI4F7gKk0C6rkAVeh-41" value="S1" style="text;html=1;align=center;verticalAlign=middle;whiteSpace=wrap;rounded=0;" vertex="1" parent="1">
          <mxGeometry x="-130" y="700" width="60" height="30" as="geometry" />
        </mxCell>
        <mxCell id="4MSmI4F7gKk0C6rkAVeh-42" value="S2" style="text;html=1;align=center;verticalAlign=middle;whiteSpace=wrap;rounded=0;" vertex="1" parent="1">
          <mxGeometry x="-130" y="790" width="60" height="30" as="geometry" />
        </mxCell>
        <mxCell id="4MSmI4F7gKk0C6rkAVeh-43" value="S3" style="text;html=1;align=center;verticalAlign=middle;whiteSpace=wrap;rounded=0;" vertex="1" parent="1">
          <mxGeometry x="-130" y="880" width="60" height="30" as="geometry" />
        </mxCell>
        <mxCell id="4MSmI4F7gKk0C6rkAVeh-44" value="S4" style="text;html=1;align=center;verticalAlign=middle;whiteSpace=wrap;rounded=0;" vertex="1" parent="1">
          <mxGeometry x="-130" y="970" width="60" height="30" as="geometry" />
        </mxCell>
        <mxCell id="4MSmI4F7gKk0C6rkAVeh-45" value="" style="endArrow=classic;html=1;rounded=0;exitX=1.01;exitY=0.163;exitDx=0;exitDy=0;exitPerimeter=0;" edge="1" parent="1" source="4MSmI4F7gKk0C6rkAVeh-21">
          <mxGeometry width="50" height="50" relative="1" as="geometry">
            <mxPoint x="-10.000000000000227" y="718.3366666666665" as="sourcePoint" />
            <mxPoint x="10" y="720" as="targetPoint" />
          </mxGeometry>
        </mxCell>
        <mxCell id="4MSmI4F7gKk0C6rkAVeh-46" value="* r1" style="ellipse;shape=cloud;whiteSpace=wrap;html=1;" vertex="1" parent="1">
          <mxGeometry x="-10" y="675" width="120" height="80" as="geometry" />
        </mxCell>
        <mxCell id="4MSmI4F7gKk0C6rkAVeh-47" value="" style="endArrow=classic;html=1;rounded=0;exitX=1.01;exitY=0.163;exitDx=0;exitDy=0;exitPerimeter=0;" edge="1" parent="1">
          <mxGeometry width="50" height="50" relative="1" as="geometry">
            <mxPoint x="-10" y="810" as="sourcePoint" />
            <mxPoint x="10" y="810" as="targetPoint" />
          </mxGeometry>
        </mxCell>
        <mxCell id="4MSmI4F7gKk0C6rkAVeh-48" value="* r2" style="ellipse;shape=cloud;whiteSpace=wrap;html=1;" vertex="1" parent="1">
          <mxGeometry x="-10" y="765" width="120" height="80" as="geometry" />
        </mxCell>
        <mxCell id="4MSmI4F7gKk0C6rkAVeh-49" value="" style="endArrow=classic;html=1;rounded=0;exitX=1.01;exitY=0.163;exitDx=0;exitDy=0;exitPerimeter=0;" edge="1" parent="1">
          <mxGeometry width="50" height="50" relative="1" as="geometry">
            <mxPoint x="-10" y="900" as="sourcePoint" />
            <mxPoint x="10" y="900" as="targetPoint" />
          </mxGeometry>
        </mxCell>
        <mxCell id="4MSmI4F7gKk0C6rkAVeh-50" value="* r3" style="ellipse;shape=cloud;whiteSpace=wrap;html=1;" vertex="1" parent="1">
          <mxGeometry x="-10" y="855" width="120" height="80" as="geometry" />
        </mxCell>
        <mxCell id="4MSmI4F7gKk0C6rkAVeh-51" value="" style="endArrow=classic;html=1;rounded=0;exitX=1.01;exitY=0.163;exitDx=0;exitDy=0;exitPerimeter=0;" edge="1" parent="1">
          <mxGeometry width="50" height="50" relative="1" as="geometry">
            <mxPoint x="-10" y="990" as="sourcePoint" />
            <mxPoint x="10" y="990" as="targetPoint" />
          </mxGeometry>
        </mxCell>
        <mxCell id="4MSmI4F7gKk0C6rkAVeh-52" value="* r4" style="ellipse;shape=cloud;whiteSpace=wrap;html=1;" vertex="1" parent="1">
          <mxGeometry x="-10" y="945" width="120" height="80" as="geometry" />
        </mxCell>
        <mxCell id="4MSmI4F7gKk0C6rkAVeh-53" value="" style="endArrow=classic;html=1;rounded=0;exitX=0.875;exitY=0.5;exitDx=0;exitDy=0;exitPerimeter=0;" edge="1" parent="1" source="4MSmI4F7gKk0C6rkAVeh-46">
          <mxGeometry width="50" height="50" relative="1" as="geometry">
            <mxPoint x="155" y="815" as="sourcePoint" />
            <mxPoint x="120" y="715" as="targetPoint" />
          </mxGeometry>
        </mxCell>
        <mxCell id="4MSmI4F7gKk0C6rkAVeh-60" value="" style="group;fontSize=14;" vertex="1" connectable="0" parent="1">
          <mxGeometry x="120" y="890" width="50" height="80" as="geometry" />
        </mxCell>
        <mxCell id="4MSmI4F7gKk0C6rkAVeh-61" value="" style="rounded=0;whiteSpace=wrap;html=1;fontSize=14;" vertex="1" parent="4MSmI4F7gKk0C6rkAVeh-60">
          <mxGeometry width="50" height="80" as="geometry" />
        </mxCell>
        <mxCell id="4MSmI4F7gKk0C6rkAVeh-62" value="" style="triangle;whiteSpace=wrap;html=1;direction=north;fontSize=14;" vertex="1" parent="4MSmI4F7gKk0C6rkAVeh-60">
          <mxGeometry x="16.666666666666668" y="66.66666666666666" width="16.666666666666668" height="13.333333333333332" as="geometry" />
        </mxCell>
        <mxCell id="4MSmI4F7gKk0C6rkAVeh-63" value="D" style="text;html=1;align=center;verticalAlign=middle;whiteSpace=wrap;rounded=0;fontSize=14;" vertex="1" parent="4MSmI4F7gKk0C6rkAVeh-60">
          <mxGeometry y="6.666666666666666" width="16.666666666666668" height="20" as="geometry" />
        </mxCell>
        <mxCell id="4MSmI4F7gKk0C6rkAVeh-64" value="Q" style="text;html=1;align=center;verticalAlign=middle;whiteSpace=wrap;rounded=0;fontSize=14;" vertex="1" parent="4MSmI4F7gKk0C6rkAVeh-60">
          <mxGeometry x="33.333333333333336" y="6.666666666666666" width="16.666666666666668" height="20" as="geometry" />
        </mxCell>
        <mxCell id="4MSmI4F7gKk0C6rkAVeh-65" value="" style="group;fontSize=14;" vertex="1" connectable="0" parent="1">
          <mxGeometry x="120" y="710" width="50" height="80" as="geometry" />
        </mxCell>
        <mxCell id="4MSmI4F7gKk0C6rkAVeh-66" value="" style="rounded=0;whiteSpace=wrap;html=1;fontSize=14;" vertex="1" parent="4MSmI4F7gKk0C6rkAVeh-65">
          <mxGeometry width="50" height="80" as="geometry" />
        </mxCell>
        <mxCell id="4MSmI4F7gKk0C6rkAVeh-67" value="" style="triangle;whiteSpace=wrap;html=1;direction=north;fontSize=14;" vertex="1" parent="4MSmI4F7gKk0C6rkAVeh-65">
          <mxGeometry x="16.666666666666668" y="66.66666666666666" width="16.666666666666668" height="13.333333333333332" as="geometry" />
        </mxCell>
        <mxCell id="4MSmI4F7gKk0C6rkAVeh-68" value="D" style="text;html=1;align=center;verticalAlign=middle;whiteSpace=wrap;rounded=0;fontSize=14;" vertex="1" parent="4MSmI4F7gKk0C6rkAVeh-65">
          <mxGeometry y="6.666666666666666" width="16.666666666666668" height="20" as="geometry" />
        </mxCell>
        <mxCell id="4MSmI4F7gKk0C6rkAVeh-69" value="Q" style="text;html=1;align=center;verticalAlign=middle;whiteSpace=wrap;rounded=0;fontSize=14;" vertex="1" parent="4MSmI4F7gKk0C6rkAVeh-65">
          <mxGeometry x="33.333333333333336" y="6.666666666666666" width="16.666666666666668" height="20" as="geometry" />
        </mxCell>
        <mxCell id="4MSmI4F7gKk0C6rkAVeh-72" value="" style="group;fontSize=14;" vertex="1" connectable="0" parent="1">
          <mxGeometry x="120" y="800" width="50" height="80" as="geometry" />
        </mxCell>
        <mxCell id="4MSmI4F7gKk0C6rkAVeh-73" value="" style="rounded=0;whiteSpace=wrap;html=1;fontSize=14;" vertex="1" parent="4MSmI4F7gKk0C6rkAVeh-72">
          <mxGeometry width="50" height="80" as="geometry" />
        </mxCell>
        <mxCell id="4MSmI4F7gKk0C6rkAVeh-74" value="" style="triangle;whiteSpace=wrap;html=1;direction=north;fontSize=14;" vertex="1" parent="4MSmI4F7gKk0C6rkAVeh-72">
          <mxGeometry x="16.666666666666668" y="66.66666666666666" width="16.666666666666668" height="13.333333333333332" as="geometry" />
        </mxCell>
        <mxCell id="4MSmI4F7gKk0C6rkAVeh-75" value="D" style="text;html=1;align=center;verticalAlign=middle;whiteSpace=wrap;rounded=0;fontSize=14;" vertex="1" parent="4MSmI4F7gKk0C6rkAVeh-72">
          <mxGeometry y="6.666666666666666" width="16.666666666666668" height="20" as="geometry" />
        </mxCell>
        <mxCell id="4MSmI4F7gKk0C6rkAVeh-76" value="Q" style="text;html=1;align=center;verticalAlign=middle;whiteSpace=wrap;rounded=0;fontSize=14;" vertex="1" parent="4MSmI4F7gKk0C6rkAVeh-72">
          <mxGeometry x="33.333333333333336" y="6.666666666666666" width="16.666666666666668" height="20" as="geometry" />
        </mxCell>
        <mxCell id="4MSmI4F7gKk0C6rkAVeh-77" value="" style="group;fontSize=14;" vertex="1" connectable="0" parent="1">
          <mxGeometry x="120" y="980" width="50" height="80" as="geometry" />
        </mxCell>
        <mxCell id="4MSmI4F7gKk0C6rkAVeh-78" value="" style="rounded=0;whiteSpace=wrap;html=1;fontSize=14;" vertex="1" parent="4MSmI4F7gKk0C6rkAVeh-77">
          <mxGeometry width="50" height="80" as="geometry" />
        </mxCell>
        <mxCell id="4MSmI4F7gKk0C6rkAVeh-79" value="" style="triangle;whiteSpace=wrap;html=1;direction=north;fontSize=14;" vertex="1" parent="4MSmI4F7gKk0C6rkAVeh-77">
          <mxGeometry x="16.666666666666668" y="66.66666666666666" width="16.666666666666668" height="13.333333333333332" as="geometry" />
        </mxCell>
        <mxCell id="4MSmI4F7gKk0C6rkAVeh-80" value="D" style="text;html=1;align=center;verticalAlign=middle;whiteSpace=wrap;rounded=0;fontSize=14;" vertex="1" parent="4MSmI4F7gKk0C6rkAVeh-77">
          <mxGeometry y="6.666666666666666" width="16.666666666666668" height="20" as="geometry" />
        </mxCell>
        <mxCell id="4MSmI4F7gKk0C6rkAVeh-81" value="Q" style="text;html=1;align=center;verticalAlign=middle;whiteSpace=wrap;rounded=0;fontSize=14;" vertex="1" parent="4MSmI4F7gKk0C6rkAVeh-77">
          <mxGeometry x="33.333333333333336" y="6.666666666666666" width="16.666666666666668" height="20" as="geometry" />
        </mxCell>
        <mxCell id="4MSmI4F7gKk0C6rkAVeh-82" value="" style="endArrow=classic;html=1;rounded=0;exitX=0.963;exitY=0.684;exitDx=0;exitDy=0;exitPerimeter=0;" edge="1" parent="1" source="4MSmI4F7gKk0C6rkAVeh-48">
          <mxGeometry width="50" height="50" relative="1" as="geometry">
            <mxPoint x="121.88" y="820" as="sourcePoint" />
            <mxPoint x="120" y="820" as="targetPoint" />
          </mxGeometry>
        </mxCell>
        <mxCell id="4MSmI4F7gKk0C6rkAVeh-83" value="" style="endArrow=classic;html=1;rounded=0;exitX=0.936;exitY=0.563;exitDx=0;exitDy=0;exitPerimeter=0;" edge="1" parent="1" source="4MSmI4F7gKk0C6rkAVeh-50">
          <mxGeometry width="50" height="50" relative="1" as="geometry">
            <mxPoint x="130" y="901" as="sourcePoint" />
            <mxPoint x="120" y="900" as="targetPoint" />
          </mxGeometry>
        </mxCell>
        <mxCell id="4MSmI4F7gKk0C6rkAVeh-84" value="" style="endArrow=classic;html=1;rounded=0;exitX=0.961;exitY=0.681;exitDx=0;exitDy=0;exitPerimeter=0;" edge="1" parent="1" source="4MSmI4F7gKk0C6rkAVeh-52">
          <mxGeometry width="50" height="50" relative="1" as="geometry">
            <mxPoint x="130" y="1001" as="sourcePoint" />
            <mxPoint x="120" y="1000" as="targetPoint" />
          </mxGeometry>
        </mxCell>
        <mxCell id="4MSmI4F7gKk0C6rkAVeh-85" value="" style="endArrow=classic;html=1;rounded=0;exitX=0.979;exitY=0.146;exitDx=0;exitDy=0;exitPerimeter=0;entryX=0.284;entryY=0.192;entryDx=0;entryDy=0;entryPerimeter=0;" edge="1" parent="1" source="4MSmI4F7gKk0C6rkAVeh-69" target="4MSmI4F7gKk0C6rkAVeh-86">
          <mxGeometry width="50" height="50" relative="1" as="geometry">
            <mxPoint x="240" y="815" as="sourcePoint" />
            <mxPoint x="320" y="760" as="targetPoint" />
            <Array as="points">
              <mxPoint x="200" y="720" />
            </Array>
          </mxGeometry>
        </mxCell>
        <mxCell id="4MSmI4F7gKk0C6rkAVeh-86" value="+" style="ellipse;shape=cloud;whiteSpace=wrap;html=1;" vertex="1" parent="1">
          <mxGeometry x="200" y="730" width="90" height="70" as="geometry" />
        </mxCell>
        <mxCell id="4MSmI4F7gKk0C6rkAVeh-87" value="" style="endArrow=classic;html=1;rounded=0;exitX=0.998;exitY=0.119;exitDx=0;exitDy=0;exitPerimeter=0;entryX=0.31;entryY=0.8;entryDx=0;entryDy=0;entryPerimeter=0;" edge="1" parent="1" source="4MSmI4F7gKk0C6rkAVeh-76" target="4MSmI4F7gKk0C6rkAVeh-86">
          <mxGeometry width="50" height="50" relative="1" as="geometry">
            <mxPoint x="230" y="830" as="sourcePoint" />
            <mxPoint x="280" y="780" as="targetPoint" />
            <Array as="points">
              <mxPoint x="200" y="810" />
            </Array>
          </mxGeometry>
        </mxCell>
        <mxCell id="4MSmI4F7gKk0C6rkAVeh-88" value="" style="endArrow=classic;html=1;rounded=0;exitX=0.995;exitY=0.116;exitDx=0;exitDy=0;exitPerimeter=0;entryX=0.284;entryY=0.192;entryDx=0;entryDy=0;entryPerimeter=0;" edge="1" parent="1" target="4MSmI4F7gKk0C6rkAVeh-89" source="4MSmI4F7gKk0C6rkAVeh-61">
          <mxGeometry width="50" height="50" relative="1" as="geometry">
            <mxPoint x="221" y="900" as="sourcePoint" />
            <mxPoint x="320" y="941" as="targetPoint" />
            <Array as="points">
              <mxPoint x="200" y="899" />
            </Array>
          </mxGeometry>
        </mxCell>
        <mxCell id="4MSmI4F7gKk0C6rkAVeh-89" value="+" style="ellipse;shape=cloud;whiteSpace=wrap;html=1;" vertex="1" parent="1">
          <mxGeometry x="200" y="911" width="80" height="60" as="geometry" />
        </mxCell>
        <mxCell id="4MSmI4F7gKk0C6rkAVeh-90" value="" style="endArrow=classic;html=1;rounded=0;exitX=0.998;exitY=0.119;exitDx=0;exitDy=0;exitPerimeter=0;entryX=0.291;entryY=0.833;entryDx=0;entryDy=0;entryPerimeter=0;" edge="1" parent="1" target="4MSmI4F7gKk0C6rkAVeh-89">
          <mxGeometry width="50" height="50" relative="1" as="geometry">
            <mxPoint x="170" y="990" as="sourcePoint" />
            <mxPoint x="220" y="970" as="targetPoint" />
            <Array as="points">
              <mxPoint x="200" y="990" />
            </Array>
          </mxGeometry>
        </mxCell>
        <mxCell id="4MSmI4F7gKk0C6rkAVeh-91" value="" style="group;fontSize=14;" vertex="1" connectable="0" parent="1">
          <mxGeometry x="310" y="750" width="50" height="80" as="geometry" />
        </mxCell>
        <mxCell id="4MSmI4F7gKk0C6rkAVeh-92" value="" style="rounded=0;whiteSpace=wrap;html=1;fontSize=14;" vertex="1" parent="4MSmI4F7gKk0C6rkAVeh-91">
          <mxGeometry width="50" height="80" as="geometry" />
        </mxCell>
        <mxCell id="4MSmI4F7gKk0C6rkAVeh-93" value="" style="triangle;whiteSpace=wrap;html=1;direction=north;fontSize=14;" vertex="1" parent="4MSmI4F7gKk0C6rkAVeh-91">
          <mxGeometry x="16.666666666666668" y="66.66666666666666" width="16.666666666666668" height="13.333333333333332" as="geometry" />
        </mxCell>
        <mxCell id="4MSmI4F7gKk0C6rkAVeh-94" value="D" style="text;html=1;align=center;verticalAlign=middle;whiteSpace=wrap;rounded=0;fontSize=14;" vertex="1" parent="4MSmI4F7gKk0C6rkAVeh-91">
          <mxGeometry y="6.666666666666666" width="16.666666666666668" height="20" as="geometry" />
        </mxCell>
        <mxCell id="4MSmI4F7gKk0C6rkAVeh-95" value="Q" style="text;html=1;align=center;verticalAlign=middle;whiteSpace=wrap;rounded=0;fontSize=14;" vertex="1" parent="4MSmI4F7gKk0C6rkAVeh-91">
          <mxGeometry x="33.333333333333336" y="6.666666666666666" width="16.666666666666668" height="20" as="geometry" />
        </mxCell>
        <mxCell id="4MSmI4F7gKk0C6rkAVeh-96" value="" style="group;fontSize=14;" vertex="1" connectable="0" parent="1">
          <mxGeometry x="310" y="930" width="50" height="80" as="geometry" />
        </mxCell>
        <mxCell id="4MSmI4F7gKk0C6rkAVeh-97" value="" style="rounded=0;whiteSpace=wrap;html=1;fontSize=14;" vertex="1" parent="4MSmI4F7gKk0C6rkAVeh-96">
          <mxGeometry width="50" height="80" as="geometry" />
        </mxCell>
        <mxCell id="4MSmI4F7gKk0C6rkAVeh-98" value="" style="triangle;whiteSpace=wrap;html=1;direction=north;fontSize=14;" vertex="1" parent="4MSmI4F7gKk0C6rkAVeh-96">
          <mxGeometry x="16.666666666666668" y="66.66666666666666" width="16.666666666666668" height="13.333333333333332" as="geometry" />
        </mxCell>
        <mxCell id="4MSmI4F7gKk0C6rkAVeh-99" value="D" style="text;html=1;align=center;verticalAlign=middle;whiteSpace=wrap;rounded=0;fontSize=14;" vertex="1" parent="4MSmI4F7gKk0C6rkAVeh-96">
          <mxGeometry y="6.666666666666666" width="16.666666666666668" height="20" as="geometry" />
        </mxCell>
        <mxCell id="4MSmI4F7gKk0C6rkAVeh-100" value="Q" style="text;html=1;align=center;verticalAlign=middle;whiteSpace=wrap;rounded=0;fontSize=14;" vertex="1" parent="4MSmI4F7gKk0C6rkAVeh-96">
          <mxGeometry x="33.333333333333336" y="6.666666666666666" width="16.666666666666668" height="20" as="geometry" />
        </mxCell>
        <mxCell id="4MSmI4F7gKk0C6rkAVeh-101" value="" style="endArrow=classic;html=1;rounded=0;exitX=0.875;exitY=0.5;exitDx=0;exitDy=0;exitPerimeter=0;" edge="1" parent="1" source="4MSmI4F7gKk0C6rkAVeh-86">
          <mxGeometry width="50" height="50" relative="1" as="geometry">
            <mxPoint x="375" y="855" as="sourcePoint" />
            <mxPoint x="310" y="765" as="targetPoint" />
          </mxGeometry>
        </mxCell>
        <mxCell id="4MSmI4F7gKk0C6rkAVeh-102" value="" style="endArrow=classic;html=1;rounded=0;exitX=0.939;exitY=0.56;exitDx=0;exitDy=0;exitPerimeter=0;entryX=-0.135;entryY=0.378;entryDx=0;entryDy=0;entryPerimeter=0;" edge="1" parent="1" source="4MSmI4F7gKk0C6rkAVeh-89" target="4MSmI4F7gKk0C6rkAVeh-99">
          <mxGeometry width="50" height="50" relative="1" as="geometry">
            <mxPoint x="273" y="945" as="sourcePoint" />
            <mxPoint x="300" y="945" as="targetPoint" />
          </mxGeometry>
        </mxCell>
        <mxCell id="4MSmI4F7gKk0C6rkAVeh-103" value="+" style="ellipse;shape=cloud;whiteSpace=wrap;html=1;" vertex="1" parent="1">
          <mxGeometry x="343.33" y="820" width="120" height="80" as="geometry" />
        </mxCell>
        <mxCell id="4MSmI4F7gKk0C6rkAVeh-104" value="" style="endArrow=classic;html=1;rounded=0;exitX=1;exitY=0.5;exitDx=0;exitDy=0;entryX=0.451;entryY=0.965;entryDx=0;entryDy=0;entryPerimeter=0;" edge="1" parent="1" source="4MSmI4F7gKk0C6rkAVeh-100" target="4MSmI4F7gKk0C6rkAVeh-103">
          <mxGeometry width="50" height="50" relative="1" as="geometry">
            <mxPoint x="520" y="976" as="sourcePoint" />
            <mxPoint x="570" y="926" as="targetPoint" />
            <Array as="points">
              <mxPoint x="370" y="947" />
            </Array>
          </mxGeometry>
        </mxCell>
        <mxCell id="4MSmI4F7gKk0C6rkAVeh-105" value="" style="endArrow=classic;html=1;rounded=0;entryX=0.492;entryY=0.073;entryDx=0;entryDy=0;entryPerimeter=0;exitX=1.044;exitY=0.66;exitDx=0;exitDy=0;exitPerimeter=0;" edge="1" parent="1" source="4MSmI4F7gKk0C6rkAVeh-95" target="4MSmI4F7gKk0C6rkAVeh-103">
          <mxGeometry width="50" height="50" relative="1" as="geometry">
            <mxPoint x="480" y="770" as="sourcePoint" />
            <mxPoint x="560" y="781" as="targetPoint" />
            <Array as="points">
              <mxPoint x="370" y="770" />
            </Array>
          </mxGeometry>
        </mxCell>
        <mxCell id="4MSmI4F7gKk0C6rkAVeh-107" value="" style="group;fontSize=14;" vertex="1" connectable="0" parent="1">
          <mxGeometry x="470" y="845" width="50" height="80" as="geometry" />
        </mxCell>
        <mxCell id="4MSmI4F7gKk0C6rkAVeh-108" value="" style="rounded=0;whiteSpace=wrap;html=1;fontSize=14;" vertex="1" parent="4MSmI4F7gKk0C6rkAVeh-107">
          <mxGeometry width="50" height="80" as="geometry" />
        </mxCell>
        <mxCell id="4MSmI4F7gKk0C6rkAVeh-109" value="" style="triangle;whiteSpace=wrap;html=1;direction=north;fontSize=14;" vertex="1" parent="4MSmI4F7gKk0C6rkAVeh-107">
          <mxGeometry x="16.666666666666668" y="66.66666666666666" width="16.666666666666668" height="13.333333333333332" as="geometry" />
        </mxCell>
        <mxCell id="4MSmI4F7gKk0C6rkAVeh-110" value="D" style="text;html=1;align=center;verticalAlign=middle;whiteSpace=wrap;rounded=0;fontSize=14;" vertex="1" parent="4MSmI4F7gKk0C6rkAVeh-107">
          <mxGeometry y="6.666666666666666" width="16.666666666666668" height="20" as="geometry" />
        </mxCell>
        <mxCell id="4MSmI4F7gKk0C6rkAVeh-111" value="Q" style="text;html=1;align=center;verticalAlign=middle;whiteSpace=wrap;rounded=0;fontSize=14;" vertex="1" parent="4MSmI4F7gKk0C6rkAVeh-107">
          <mxGeometry x="33.333333333333336" y="6.666666666666666" width="16.666666666666668" height="20" as="geometry" />
        </mxCell>
        <mxCell id="4MSmI4F7gKk0C6rkAVeh-112" value="" style="endArrow=classic;html=1;rounded=0;exitX=0.875;exitY=0.5;exitDx=0;exitDy=0;exitPerimeter=0;" edge="1" parent="1" source="4MSmI4F7gKk0C6rkAVeh-103">
          <mxGeometry width="50" height="50" relative="1" as="geometry">
            <mxPoint x="595" y="905" as="sourcePoint" />
            <mxPoint x="470" y="860" as="targetPoint" />
          </mxGeometry>
        </mxCell>
        <mxCell id="4MSmI4F7gKk0C6rkAVeh-113" value="" style="endArrow=classic;html=1;rounded=0;exitX=1.019;exitY=0.417;exitDx=0;exitDy=0;exitPerimeter=0;" edge="1" parent="1" source="4MSmI4F7gKk0C6rkAVeh-111">
          <mxGeometry width="50" height="50" relative="1" as="geometry">
            <mxPoint x="680" y="905" as="sourcePoint" />
            <mxPoint x="540" y="860" as="targetPoint" />
          </mxGeometry>
        </mxCell>
      </root>
    </mxGraphModel>
  </diagram>
</mxfile>
